<?xml version="1.0" encoding="iso-8859-1"?>
<svg xmlns="http://www.w3.org/2000/svg" xmlns:xlink="http://www.w3.org/1999/xlink" version="1.1" id="Layer_1" x="0px" y="0px" viewBox="0 0 512.001 512.001" style="enable-background:new 0 0 512.001 512.001;" xml:space="preserve">
<g>
	<path style="fill:#7fd5f7;" d="M120.576,460.744h-9.621l6.803-6.803c3.475-3.476,3.475-9.11-0.001-12.585   c-3.474-3.474-9.108-3.474-12.584,0l-6.801,6.801v-9.618c0-4.914-3.985-8.899-8.899-8.899c-4.914,0-8.899,3.985-8.899,8.899v9.619   l-6.802-6.802c-3.476-3.474-9.11-3.474-12.585,0c-3.475,3.475-3.475,9.109,0,12.585l6.803,6.803h-9.62   c-4.914,0-8.899,3.985-8.899,8.899s3.985,8.899,8.899,8.899h9.618l-6.801,6.801c-3.475,3.476-3.475,9.11,0,12.585   c1.739,1.738,4.015,2.606,6.293,2.606s4.555-0.869,6.293-2.606l6.802-6.802v9.619c0,4.914,3.985,8.899,8.899,8.899   c4.914,0,8.899-3.985,8.899-8.899v-9.618l6.801,6.801c1.739,1.738,4.015,2.606,6.293,2.606c2.277,0,4.555-0.869,6.292-2.606   c3.476-3.475,3.476-9.109,0.001-12.585l-6.801-6.801h9.619c4.914,0,8.899-3.985,8.899-8.899S125.49,460.744,120.576,460.744z"/>
	<path style="fill:#7fd5f7;" d="M120.576,347.936h-9.621l6.803-6.803c3.475-3.476,3.475-9.11-0.001-12.585   c-3.474-3.474-9.108-3.474-12.584,0l-6.801,6.801v-9.618c0-4.914-3.985-8.899-8.899-8.899c-4.914,0-8.899,3.985-8.899,8.899v9.619   l-6.802-6.802c-3.476-3.473-9.11-3.475-12.585,0c-3.475,3.475-3.475,9.109,0,12.585l6.803,6.803h-9.62   c-4.914,0-8.899,3.985-8.899,8.899s3.985,8.899,8.899,8.899h9.618l-6.801,6.801c-3.475,3.476-3.475,9.11,0,12.585   c1.739,1.738,4.015,2.606,6.293,2.606s4.555-0.869,6.293-2.606l6.802-6.802v9.619c0,4.914,3.985,8.899,8.899,8.899   c4.914,0,8.899-3.985,8.899-8.899v-9.618l6.801,6.801c1.739,1.738,4.015,2.606,6.293,2.606c2.277,0,4.555-0.869,6.292-2.606   c3.476-3.475,3.476-9.109,0.001-12.585l-6.801-6.801h9.619c4.914,0,8.899-3.985,8.899-8.899S125.49,347.936,120.576,347.936z"/>
	<path style="fill:#7fd5f7;" d="M284.394,460.744h-9.623l6.804-6.804c3.475-3.475,3.475-9.109-0.001-12.584   c-3.475-3.474-9.109-3.475-12.584,0.001l-6.801,6.801v-9.619c0-4.914-3.985-8.899-8.899-8.899c-4.914,0-8.899,3.985-8.899,8.899   v9.62l-6.801-6.802c-3.475-3.476-9.109-3.475-12.584-0.001c-3.476,3.475-3.476,9.109-0.001,12.584l6.804,6.804h-9.621   c-4.914,0-8.899,3.985-8.899,8.899s3.985,8.899,8.899,8.899h9.619l-6.802,6.802c-3.475,3.475-3.475,9.109,0.001,12.584   c1.738,1.738,4.015,2.606,6.292,2.606s4.555-0.869,6.293-2.607l6.801-6.802v9.62c0,4.914,3.985,8.899,8.899,8.899   c4.914,0,8.899-3.985,8.899-8.899v-9.619l6.801,6.801c1.739,1.739,4.015,2.607,6.293,2.607c2.277,0,4.555-0.869,6.292-2.606   c3.476-3.475,3.476-9.109,0.001-12.584l-6.802-6.802h9.621c4.914,0,8.899-3.985,8.899-8.899S289.309,460.744,284.394,460.744z"/>
	<path style="fill:#7fd5f7;" d="M284.394,347.936h-9.623l6.804-6.804c3.475-3.475,3.475-9.109-0.001-12.584   c-3.475-3.474-9.109-3.475-12.584,0.001l-6.801,6.801v-9.619c0-4.914-3.985-8.899-8.899-8.899c-4.914,0-8.899,3.985-8.899,8.899   v9.62l-6.801-6.802c-3.475-3.475-9.109-3.476-12.584-0.001c-3.476,3.475-3.476,9.109-0.001,12.584l6.804,6.804h-9.621   c-4.914,0-8.899,3.985-8.899,8.899s3.985,8.899,8.899,8.899h9.619l-6.802,6.802c-3.475,3.475-3.475,9.109,0.001,12.584   c1.738,1.738,4.015,2.606,6.292,2.606s4.555-0.869,6.293-2.607l6.801-6.802v9.62c0,4.914,3.985,8.899,8.899,8.899   c4.914,0,8.899-3.985,8.899-8.899v-9.619l6.801,6.801c1.739,1.739,4.015,2.607,6.293,2.607c2.277,0,4.555-0.869,6.292-2.606   c3.476-3.475,3.476-9.109,0.001-12.584l-6.802-6.802h9.621c4.914,0,8.899-3.985,8.899-8.899S289.309,347.936,284.394,347.936z"/>
	<path style="fill:#7fd5f7;" d="M448.212,460.744h-9.621l6.803-6.803c3.475-3.476,3.475-9.11,0-12.585   c-3.476-3.474-9.109-3.474-12.585,0l-6.801,6.801v-9.618c0-4.914-3.985-8.899-8.899-8.899s-8.899,3.985-8.899,8.899v9.619   l-6.802-6.802c-3.475-3.474-9.11-3.474-12.584,0c-3.476,3.475-3.476,9.109-0.001,12.585l6.803,6.803h-9.62   c-4.914,0-8.899,3.985-8.899,8.899s3.985,8.899,8.899,8.899h9.618l-6.801,6.801c-3.475,3.476-3.475,9.11,0.001,12.585   c1.738,1.738,4.015,2.606,6.292,2.606c2.277,0,4.555-0.869,6.293-2.606l6.802-6.802v9.619c0,4.914,3.985,8.899,8.899,8.899   s8.899-3.985,8.899-8.899v-9.618l6.801,6.801c1.739,1.738,4.015,2.606,6.293,2.606c2.277,0,4.555-0.869,6.293-2.606   c3.475-3.475,3.475-9.109,0-12.585l-6.801-6.801h9.619c4.914,0,8.899-3.985,8.899-8.899S453.126,460.744,448.212,460.744z"/>
	<path style="fill:#7fd5f7;" d="M386.003,365.734h9.618l-6.801,6.801c-3.475,3.476-3.475,9.11,0.001,12.585   c1.738,1.738,4.015,2.606,6.292,2.606s4.555-0.869,6.293-2.606l6.802-6.802v9.619c0,4.914,3.985,8.899,8.899,8.899   s8.899-3.985,8.899-8.899v-9.619l6.801,6.802c1.739,1.738,4.015,2.606,6.293,2.606c2.277,0,4.555-0.869,6.293-2.606   c3.475-3.475,3.475-9.109,0-12.585l-6.801-6.801h9.619c4.914,0,8.899-3.985,8.899-8.899s-3.985-8.899-8.899-8.899h-9.621   l6.803-6.803c3.475-3.476,3.475-9.11,0-12.585c-3.476-3.474-9.109-3.474-12.585,0l-6.801,6.801v-9.618   c0-4.914-3.985-8.899-8.899-8.899s-8.899,3.985-8.899,8.899v9.619l-6.802-6.802c-3.475-3.473-9.11-3.475-12.584,0   c-3.476,3.475-3.476,9.109-0.001,12.585l6.803,6.803h-9.62c-4.914,0-8.899,3.985-8.899,8.899S381.089,365.734,386.003,365.734z"/>
	<path style="fill:#7fd5f7;" d="M428.615,114.51c-8.699,0-17.082,1.336-24.963,3.804c0.041-1.263,0.097-2.526,0.097-3.804   c0-20.105-5.29-38.973-14.555-55.291c-0.001-0.001-0.001-0.002-0.002-0.004C369.548,20.863,328.73,8.654,328.73,8.654l0.004,0.021   c-11.627-4.08-24.12-6.318-37.139-6.318c-53.41,0-98.066,37.345-109.365,87.34c-6.699-2.238-13.862-3.465-21.314-3.465   c-22.948,0-43.197,11.489-55.344,29.022c-6.78-1.753-13.886-2.694-21.214-2.694C37.766,112.559,0,150.328,0,196.918   s37.766,84.361,84.357,84.361h305.122h32.736h6.401c46.055,0,83.385-37.335,83.385-83.383   C512,151.841,474.671,114.51,428.615,114.51z"/>
</g>
<path style="fill:#5dc6e6;" d="M177.205,124.516c0-12.085,1.129-23.904,3.267-35.369c-6.191-1.881-12.75-2.916-19.556-2.916  c-22.948,0-43.197,11.489-55.344,29.022c-6.78-1.753-13.886-2.694-21.214-2.694C37.766,112.559,0,150.328,0,196.918  s37.766,84.361,84.357,84.361h174.087C209.297,246.54,177.205,189.279,177.205,124.516z"/>
<g> </g> <g> </g> <g> </g> <g> </g> <g> </g> <g> </g> <g> </g> <g> </g> <g> </g> <g> </g> <g> </g> <g> </g> <g> </g> <g> </g> <g> </g> </svg>
